<?xml version="1.0" encoding="UTF-8" standalone="no"?>
<!-- Created with Inkscape (http://www.inkscape.org/) -->

<svg
   width="160.30386mm"
   height="160.30388mm"
   viewBox="0 0 160.30386 160.30388"
   version="1.1"
   id="svg1"
   xmlns="http://www.w3.org/2000/svg"
   xmlns:svg="http://www.w3.org/2000/svg">
  <defs
     id="defs1">
    <linearGradient
       id="swatch36">
      <stop
         style="stop-color:#999999;stop-opacity:1;"
         offset="0"
         id="stop36" />
    </linearGradient>
    <clipPath
       clipPathUnits="userSpaceOnUse"
       id="clipPath1560">
      <rect
         style="fill:#f9f9f9;fill-opacity:1;stroke:#f9f9f9;stroke-width:3.69599;stroke-linecap:round;stroke-linejoin:round;stroke-dasharray:none;stroke-opacity:1"
         id="rect1561"
         width="69.741631"
         height="69.741631"
         x="101.5762"
         y="186.03903"
         ry="12.144981" />
    </clipPath>
  </defs>
  <g
     id="layer1"
     transform="translate(-21.423413,-124.62328)">
    <g
       id="g36"
       transform="matrix(2.2985392,0,0,2.2985392,-212.05347,-302.99474)">
      <rect
         style="fill:#f2f2f2;fill-opacity:1;stroke:none;stroke-width:3.69599;stroke-linecap:round;stroke-linejoin:round;stroke-dasharray:none;stroke-opacity:1"
         id="rect36"
         width="69.741631"
         height="69.741631"
         x="101.5762"
         y="186.03903"
         ry="12.144981" />
      <path
         style="fill:none;fill-opacity:1;stroke:#1a1a1a;stroke-width:6.996;stroke-linecap:round;stroke-linejoin:round;stroke-dasharray:none;stroke-opacity:1"
         d="m 135.37806,166.94364 c -2.45567,22.45911 -4.06735,36.35067 -10.90212,49.33652 l 27.21869,-1.61576 c 11.3723,-9.66487 25.47821,5.10037 30.2077,42.35004"
         id="path1530"
         mask="none"
         clip-path="url(#clipPath1560)" />
      <g
         id="g1532"
         style="fill:none;stroke:#1a1a1a"
         transform="matrix(0.98756372,0,0,1.2243022,0.10892603,-42.504262)">
        <path
           id="path1534"
           style="display:none;fill:#4d4d4d;stroke:#ffffff;stroke-width:4.34431;stroke-linecap:round;stroke-linejoin:round"
           d="m 124.94141,203.29688 c -4.26407,0.48848 -7.74855,3.54922 -10.05469,7 -3.19348,4.62777 -5.27037,10.21142 -5,15.89062 0.0111,1.59091 0.44449,3.41654 1.44072,4.8063 1.70562,2.57395 4.78517,4.18773 7.88445,3.97662 6.41945,0.25952 12.84602,0.0871 19.26816,0.21178 5.59829,0.003 11.21617,0.16137 16.79997,-0.21694 5.41308,-1.79452 8.77459,-8.42005 6.66165,-13.79291 -0.87407,-2.14613 -2.67191,-4.03335 -4.65065,-5.02001 -1.25677,-0.61724 -2.68805,-0.98999 -4.1156,-0.81791 -1.19645,0.38116 -2.61364,0.78135 -3.74212,-0.002 -5.50786,-2.38939 -11.21883,-4.34142 -16.60207,-6.99609 -0.96309,-1.15929 -1.16419,-3.08398 -2.77068,-3.64071 -1.58655,-0.79876 -3.31786,-1.43872 -5.11914,-1.39843 z" />
        <path
           id="path1536"
           style="fill:#1a1a1a;stroke:#f2f2f2;stroke-width:6.84607;stroke-linecap:round;stroke-linejoin:round;stroke-dasharray:none"
           d="m -142.48709,196.50175 h 4.74345 v 19.55857 h -4.74345 z m 2.16889,-9.12156 c -4.77069,-13.08151 -41.67028,-13.6826 -33.56911,6.56301 l 12.11996,30.75688 c 1.70285,7.5451 18.89235,11.49223 21.41333,-1.876 l 0.50898,-31.85438 c 0.10414,-1.28278 -0.0689,-2.48091 -0.47316,-3.58951 z"
           transform="matrix(0.34304039,-0.93932065,0.92683383,0.37547174,0,0)" />
        <path
           id="rect34"
           style="fill:none;stroke-width:4.34562;stroke-linecap:round;stroke-linejoin:round"
           d="m -142.48709,196.50175 h 4.74345 v 19.55857 h -4.74345 z m 2.16889,-9.12156 c -4.77069,-13.08151 -41.67028,-13.6826 -33.56911,6.56301 l 12.11996,30.75688 c 1.70285,7.5451 18.89235,11.49223 21.41333,-1.876 l 0.50898,-31.85438 c 0.10414,-1.28278 -0.0689,-2.48091 -0.47316,-3.58951 z"
           transform="matrix(0.3430404,-0.93932065,0.92683384,0.37547174,0,0)" />
      </g>
      <path
         style="fill:none;fill-opacity:1;stroke:#f2f2f2;stroke-width:4.35059;stroke-linecap:round;stroke-linejoin:round;stroke-dasharray:none;stroke-opacity:1"
         d="m 121.4803,218.88755 9.24854,7.94554 -9.11886,7.60493"
         id="path35" />
      <path
         style="fill:#ececec;fill-opacity:1;stroke:#ececec;stroke-width:4.34848;stroke-linecap:round;stroke-linejoin:round;stroke-dasharray:none;stroke-opacity:1"
         d="m 139.23094,234.2821 10.76438,-0.0133"
         id="path36" />
    </g>
  </g>
</svg>
